HIERARCHY
ROOT Hips
{
	OFFSET -3.958830 18.904000 13.208200
	CHANNELS 6 Xposition Yposition Zposition Zrotation Yrotation Xrotation 
	JOINT LHipJoint
	{
		OFFSET 0.000000 0.000000 0.000000
		CHANNELS 3 Zrotation Yrotation Xrotation
		JOINT LeftUpLeg
		{
			OFFSET 1.800000 -1.400000 0.085000
			CHANNELS 3 Zrotation Yrotation Xrotation
			JOINT LeftLeg
			{
				OFFSET 2.215000 -6.000000 0.000000
				CHANNELS 3 Zrotation Yrotation Xrotation
				JOINT LeftFoot
				{
					OFFSET 2.500000 -6.900000 0.000000
					CHANNELS 3 Zrotation Yrotation Xrotation
					JOINT LeftToeBase
					{
						OFFSET 0.200000 -0.500000 1.950000
						CHANNELS 3 Zrotation Yrotation Xrotation
						End Site
						{
							OFFSET 0.000000 0.000000 0.000000
						}
					}
				}
			}
		}
	}
	JOINT RHipJoint
	{
		OFFSET 0.000000 0.000000 0.000000
		CHANNELS 3 Zrotation Yrotation Xrotation
		JOINT RightUpLeg
		{
			OFFSET -1.800000 -1.400000 0.085000
			CHANNELS 3 Zrotation Yrotation Xrotation
			JOINT RightLeg
			{
				OFFSET -2.215000 -6.000000 0.000000
				CHANNELS 3 Zrotation Yrotation Xrotation
				JOINT RightFoot
				{
					OFFSET -2.500000 -6.900000 0.000000
					CHANNELS 3 Zrotation Yrotation Xrotation
					JOINT RightToeBase
					{
						OFFSET -0.200000 -0.500000 1.950000
						CHANNELS 3 Zrotation Yrotation Xrotation
						End Site
						{
							OFFSET 0.000000 0.000000 0.000000
						}
					}
				}
			}
		}
	}
	JOINT LowerBack
	{
		OFFSET 0.000000 0.000000 0.000000
		CHANNELS 3 Zrotation Yrotation Xrotation
		JOINT Spine
		{
			OFFSET -0.087000 1.940000 -0.288900
			CHANNELS 3 Zrotation Yrotation Xrotation
			JOINT Spine1
			{
				OFFSET 0.000000 1.950000 0.060000
				CHANNELS 3 Zrotation Yrotation Xrotation
				JOINT Neck
				{
					OFFSET 0.000000 0.000000 0.000000
					CHANNELS 3 Zrotation Yrotation Xrotation
					JOINT Neck1
					{
						OFFSET 0.000000 1.600000 0.340000
						CHANNELS 3 Zrotation Yrotation Xrotation
						JOINT Head
						{
							OFFSET 0.000000 1.667000 -0.240000
							CHANNELS 3 Zrotation Yrotation Xrotation
							End Site
							{
								OFFSET 0.000000 0.000000 0.000000
							}
						}
					}
				}
				JOINT LeftShoulder
				{
					OFFSET 0.000000 0.000000 0.000000
					CHANNELS 3 Zrotation Yrotation Xrotation
					JOINT LeftArm
					{
						OFFSET 2.700000 1.550000 -0.730000
						CHANNELS 3 Zrotation Yrotation Xrotation
						JOINT LeftForeArm
						{
							OFFSET 5.450000 0.000000 0.000000
							CHANNELS 3 Zrotation Yrotation Xrotation
							JOINT LeftHand
							{
								OFFSET 3.450000 0.000000 0.000000
								CHANNELS 3 Zrotation Yrotation Xrotation
								JOINT LeftHandIndex1
								{
									OFFSET 0.750000 0.000000 0.000000
									CHANNELS 3 Zrotation Yrotation Xrotation
									End Site
									{
										OFFSET 0.000000 0.000000 0.000000
									}
								}
							}
						}
					}
				}
				JOINT RightShoulder
				{
					OFFSET 0.000000 0.000000 0.000000
					CHANNELS 3 Zrotation Yrotation Xrotation
					JOINT RightArm
					{
						OFFSET -2.700000 1.550000 -0.730000
						CHANNELS 3 Zrotation Yrotation Xrotation
						JOINT RightForeArm
						{
							OFFSET -5.450000 0.000000 0.000000
							CHANNELS 3 Zrotation Yrotation Xrotation
							JOINT RightHand
							{
								OFFSET -3.450000 0.000000 0.000000
								CHANNELS 3 Zrotation Yrotation Xrotation
								JOINT RightHandIndex1
								{
									OFFSET -0.750000 0.000000 0.000000
									CHANNELS 3 Zrotation Yrotation Xrotation
									End Site
									{
										OFFSET 0.000000 0.000000 0.000000
									}
								}
							}
						}
					}
				}
			}
		}
	}
}
MOTION
Frames: 9
Frame Time: 0.016667
-0.383550 17.409300 -0.166360 1.938628 -8.736784 -8.568301 -15.439239 12.473369 3.991537 -10.269964 -3.604962 -1.811041 -24.517599 17.834098 35.894942 0.735712 10.245606 1.275806 0.156380 -0.113230 0.072050 18.308799 -8.848785 3.723618 -0.161025 8.673023 -32.964831 15.382016 -14.557590 45.425584 -1.398396 -7.755322 1.502592 -0.058100 0.503050 0.606870 -3.265604 -3.463889 -8.653912 13.657781 -6.814844 41.766500 -2.170138 -3.940858 5.124203 2.242862 -3.418948 -8.033577 -6.842264 0.186797 26.918040 -10.582350 2.258140 -33.768200 -12.020369 -4.886837 0.938249 -10.331036 2.580583 -7.577093 -165.943631 -77.478795 154.357664 -3.701854 3.062171 1.035610 0.127460 0.301410 0.220260 7.543779 7.037870 4.862675 36.260846 5.750475 -12.200193 103.077295 76.042654 69.214409 3.263188 1.280994 -0.377820 0.420140 0.281530 -0.102050 
-0.380390 17.289300 -0.168420 1.831858 -8.015294 -9.233713 -15.480315 12.475767 3.970228 -10.131058 -3.854922 -1.531883 -24.114074 18.391387 37.793813 0.769618 10.577491 1.160642 0.219340 -0.033630 0.103590 18.291667 -8.696150 3.763783 -0.594851 9.010259 -33.248291 16.224558 -15.521218 47.005303 -1.542978 -8.191431 1.342590 -0.002570 0.499020 0.630230 -3.193101 -3.704791 -8.664490 14.060823 -6.897869 43.452190 -1.403286 -3.897926 5.030869 2.069249 -4.180250 -7.301597 -7.791027 0.811186 25.311295 -10.090830 2.207130 -36.745520 -12.540505 -3.937992 0.473884 -8.115815 2.051262 -6.769500 178.516943 -75.357146 173.182472 -3.736480 3.173493 1.062720 0.111120 0.337010 0.238420 8.457608 6.807485 3.943896 31.288532 3.694169 -14.872248 119.811511 71.922721 87.915961 2.306725 0.229696 -0.371300 0.449040 0.268440 -0.095730 
-0.376410 17.100800 -0.157710 1.499348 -6.309031 -10.550747 -15.537389 12.496404 3.965459 -9.669008 -4.428576 -0.627699 -23.601563 19.329393 40.848991 0.902068 11.124348 0.984781 0.270750 0.036420 0.142710 18.259704 -8.509483 3.780819 -1.239689 9.088668 -33.156864 17.865926 -17.339927 49.079921 -1.746719 -8.886100 1.120190 0.033770 0.470700 0.652740 -3.078772 -4.065791 -8.689259 14.851920 -7.371589 45.600971 -0.716282 -4.144756 5.299270 2.143271 -4.425204 -6.972830 -7.978611 0.742597 24.014084 -10.691460 2.185260 -38.852200 -12.990726 -3.243239 -0.247252 -3.956518 2.038857 -6.190770 165.243993 -71.428571 -168.910303 -3.770069 3.237200 1.062420 0.097890 0.373310 0.247350 8.759133 6.127120 4.147801 26.531470 0.296967 -14.673494 145.113536 69.132991 117.773408 1.754611 -0.994705 -0.344110 0.444770 0.241800 -0.090330 
-0.371010 16.891710 -0.147920 1.158079 -6.132604 -11.149206 -15.580169 12.388875 3.948143 -9.099742 -5.072096 -0.988525 -24.118229 20.873357 43.798981 1.029696 11.766953 0.769894 0.350190 0.116520 0.198900 18.258650 -8.222788 3.952933 -1.739534 10.098508 -34.383422 19.594757 -19.400282 52.029438 -1.992877 -9.759816 0.858620 0.085990 0.434460 0.672990 -3.030722 -4.283863 -8.784132 15.841873 -7.382075 46.466631 -0.114480 -3.904070 5.740329 2.032066 -4.956199 -6.571365 -8.815913 0.554756 23.565303 -11.226950 1.734260 -39.729570 -13.949113 -2.825191 -1.111599 0.869523 1.940704 -5.615881 155.692037 -68.962201 -154.260082 -3.799285 3.254524 1.069490 0.087510 0.395880 0.260780 9.840615 6.033210 4.388478 20.676520 -2.584443 -13.431144 160.279692 65.512582 135.044891 1.677750 -1.435157 -0.321100 0.430930 0.207290 -0.099000 
-0.377790 16.706620 -0.164380 1.479221 -5.745845 -12.764046 -15.599478 12.286494 3.979473 -8.778455 -5.520057 -0.497658 -25.080027 22.582516 46.161125 1.250957 12.395309 0.606423 0.347840 0.137700 0.150340 18.264558 -8.066384 4.027292 -2.501599 10.605165 -34.640465 20.742019 -21.120104 54.650725 -2.174542 -10.522646 0.663048 0.090530 0.462810 0.682570 -3.022151 -4.364388 -8.861553 15.910929 -7.463631 48.690344 0.057467 -4.091602 5.569369 1.593032 -5.286779 -6.430455 -9.413263 0.622435 23.549697 -10.130800 1.227520 -38.361880 -14.119323 -2.885865 -1.623028 6.078855 2.815005 -5.423621 147.616113 -69.011053 -142.594676 -3.846738 3.250600 1.014230 0.108330 0.379980 0.287730 10.856835 6.277841 4.737974 17.790034 -4.110629 -12.756668 172.173370 62.373357 150.678823 1.676373 -1.658956 -0.290190 0.420580 0.201720 -0.056710 
-0.389110 16.572420 -0.174780 1.762446 -5.895563 -13.964611 -15.619408 12.223686 3.991277 -8.538387 -5.595312 0.005969 -25.842825 23.864779 47.476205 1.481398 12.740382 0.517884 0.316580 0.153070 0.084410 18.262601 -7.941258 4.116000 -2.726008 11.270010 -34.900334 21.186704 -22.298809 57.073466 -2.304018 -11.124418 0.524542 0.061280 0.457540 0.697900 -2.996776 -4.415484 -8.941285 15.675345 -7.285296 50.512741 0.041438 -4.050933 5.290879 1.506187 -4.894180 -6.579440 -8.874291 0.554078 24.166135 -10.168220 1.493710 -36.220300 -14.365705 -3.566109 -1.712248 9.458359 3.802683 -5.556927 144.098212 -68.361187 -136.905761 -3.866057 3.299315 0.914380 0.132600 0.370220 0.294890 11.276909 6.749117 5.245948 18.522301 -4.448444 -12.872207 -179.022789 60.947641 164.049890 1.716462 -1.785421 -0.216040 0.348540 0.189800 -0.004550 
-0.415630 16.486490 -0.188310 2.393581 -5.876859 -14.765877 -15.667940 12.203938 4.025844 -9.251411 -5.651915 0.406894 -25.837751 24.394134 48.412766 1.621422 12.924928 0.498723 0.268150 0.102770 0.075700 18.231774 -7.814466 4.185432 -2.965478 11.738667 -35.439938 21.061584 -22.952194 59.150862 -2.403544 -11.528085 0.436461 0.003320 0.454710 0.710940 -2.885697 -4.557991 -9.035481 14.263150 -6.314634 51.484690 0.322574 -3.684887 5.655701 1.677621 -3.529826 -7.006734 -6.903773 0.274676 25.649496 -11.528100 2.362070 -35.448720 -15.035081 -5.288204 -1.454938 11.683723 4.117353 -6.113099 138.847020 -67.632187 -129.267502 -3.879862 3.240292 0.892420 0.143550 0.381950 0.290040 11.615178 7.644456 6.100514 22.001679 -4.010098 -13.434957 -171.052647 59.301610 176.315134 1.765840 -1.810883 -0.197300 0.318610 0.183740 0.003660 
-0.443880 16.480270 -0.189130 2.778607 -6.212200 -15.720444 -15.704620 12.320604 4.009112 -9.825567 -4.962779 1.740448 -25.044484 23.826935 47.733646 1.666852 12.715652 0.580706 0.192030 0.039690 -0.004370 18.189651 -7.790131 4.189564 -3.095306 11.923173 -34.648014 21.373409 -23.091148 59.477981 -2.409290 -11.620992 0.444810 -0.064750 0.481460 0.715820 -2.770448 -4.753966 -9.057881 12.878481 -5.427238 52.749051 0.763258 -3.343532 5.671582 1.664333 -2.711166 -7.510261 -5.809448 0.511012 27.075643 -11.055120 2.984140 -34.032170 -15.682511 -6.886884 -0.692147 11.414613 4.838939 -6.734543 135.517531 -66.705495 -124.479902 -3.902463 3.199434 0.850140 0.161770 0.364100 0.285080 12.311520 8.962556 6.596951 24.480170 -2.773780 -14.131309 -165.656353 59.324236 -175.119433 1.806739 -1.795935 -0.171500 0.290370 0.213120 0.034420 
-0.466900 16.531770 -0.185040 3.077275 -6.395865 -16.090446 -15.731619 12.471274 3.994098 -10.677930 -4.196199 2.767431 -23.373697 22.652841 46.972944 1.627188 12.402379 0.718927 0.140620 -0.036480 -0.021290 18.148201 -7.816527 4.156348 -3.281073 11.854848 -33.675558 21.550251 -22.693054 58.731038 -2.364771 -11.444636 0.525449 -0.119000 0.518910 0.705700 -2.666955 -4.946501 -9.053411 11.876210 -4.729197 52.848698 1.152108 -3.009759 5.695166 1.711438 -2.457585 -7.931021 -5.686682 0.627079 28.581436 -11.420000 3.135390 -33.029600 -16.540695 -8.209310 0.063625 10.027082 5.039208 -7.064419 134.760103 -67.383398 -124.580721 -3.916295 3.133279 0.859350 0.171090 0.355620 0.293990 13.080242 10.389270 6.934924 26.472759 -1.217239 -14.795221 -160.307012 60.401114 -166.824153 1.839613 -1.744946 -0.193410 0.321630 0.222360 0.038730 
